<svg version="1.1" id="Layer_1" xmlns="http://www.w3.org/2000/svg" xmlns:xlink="http://www.w3.org/1999/xlink" x="0px" y="0px"
	 width="100%" viewBox="0 0 1024 1024" enable-background="new 0 0 1024 1024" xml:space="preserve">
<path fill="#FDFEFE" opacity="1.000000" stroke="none" 
	d="
M654.000000,1025.000000 
	C436.000000,1025.000000 218.500000,1025.000000 1.000000,1025.000000 
	C1.000000,683.666687 1.000000,342.333344 1.000000,1.000000 
	C342.333344,1.000000 683.666687,1.000000 1025.000000,1.000000 
	C1025.000000,342.333344 1025.000000,683.666687 1025.000000,1025.000000 
	C901.500000,1025.000000 778.000000,1025.000000 654.000000,1025.000000 
M704.859192,436.448395 
	C698.082397,376.353516 670.533447,327.726105 620.307800,294.404358 
	C552.281860,249.273224 481.185242,248.277603 411.184662,289.816437 
	C333.949249,335.648438 300.269562,432.828827 329.403503,518.578308 
	C353.932922,590.775330 420.823883,642.603882 496.698395,647.937256 
	C543.991821,651.261536 587.269104,640.049561 625.739380,611.934814 
	C633.641296,606.159973 641.535461,600.131470 648.364075,593.170959 
	C690.828918,549.886353 709.791565,497.904633 704.859192,436.448395 
M726.286499,686.047424 
	C726.286499,690.944824 726.286499,695.842285 726.286499,700.739685 
	C721.743164,696.536865 718.430298,691.862427 714.623108,687.632874 
	C713.190979,686.041870 710.612610,685.482605 707.784912,684.066406 
	C707.784912,694.428223 707.784912,703.167908 707.784912,711.989563 
	C709.692993,711.989563 711.387146,711.989563 713.663818,711.989563 
	C713.663818,706.630981 713.663818,701.641113 713.663818,696.651245 
	C717.686646,700.412720 720.851990,704.371033 723.683594,708.555237 
	C725.783569,711.658264 728.126160,713.236145 731.654846,711.725647 
	C731.654846,702.804688 731.654846,694.080078 731.654846,685.070068 
	C729.744873,685.169983 728.277588,685.246704 726.286499,686.047424 
M362.837341,694.603333 
	C362.837341,700.387024 362.837341,706.170715 362.837341,711.957825 
	C364.946014,711.957825 366.556213,711.957825 368.435333,711.957825 
	C368.607513,708.360657 368.769409,704.978149 368.917236,701.889099 
	C373.156555,701.889099 376.738800,701.889099 380.732971,701.889099 
	C380.732971,705.534424 380.732971,708.770874 380.732971,711.984497 
	C382.770569,711.984497 384.380066,711.984497 386.131775,711.984497 
	C386.131775,703.146362 386.131775,694.538635 386.131775,685.989685 
	C382.281799,683.912292 380.465424,684.705017 380.731262,689.103027 
	C380.866547,691.340881 380.754974,693.593567 380.754974,695.866821 
	C376.213898,695.866821 372.616364,695.866821 368.973694,695.866821 
	C368.728088,692.179016 368.500580,688.762817 368.274109,685.362183 
	C366.232239,685.362183 364.671082,685.362183 362.827637,685.362183 
	C362.827637,688.339844 362.827637,690.992371 362.837341,694.603333 
M575.025146,686.367249 
	C571.935730,685.906799 568.799866,684.866699 565.766907,685.109985 
	C559.957764,685.575928 555.950500,689.008606 554.056458,694.545593 
	C552.290466,699.708130 553.999390,706.136658 557.679016,709.187012 
	C564.840210,715.123596 574.611877,713.682922 580.800903,705.516296 
	C583.855713,701.485291 583.688660,691.045044 575.025146,686.367249 
M687.517822,684.908752 
	C676.499634,685.884521 670.724731,694.512878 674.702942,704.055603 
	C677.435486,710.610291 684.099548,713.813293 691.535706,712.145874 
	C698.314209,710.625916 702.809631,704.842102 702.452271,698.100769 
	C702.048523,690.485168 697.028320,685.781494 687.517822,684.908752 
M300.446625,685.288513 
	C296.841431,685.288513 293.236237,685.288513 289.465149,685.288513 
	C289.465149,694.546082 289.465149,703.239319 289.465149,711.945801 
	C296.367096,711.945801 302.936340,711.945801 309.801636,711.945801 
	C309.661255,710.223022 309.546478,708.814209 309.399353,707.008301 
	C304.487976,707.008301 299.893890,707.008301 295.064209,707.008301 
	C295.203766,704.830200 295.314850,703.096863 295.456573,700.885376 
	C299.945251,700.885376 303.850983,700.885376 307.756714,700.885376 
	C307.959290,700.161865 308.161835,699.438416 308.364410,698.714905 
	C305.696289,693.174255 299.012482,698.129395 294.881561,695.356995 
	C294.967499,693.838501 295.064301,692.127747 295.174835,690.174072 
	C300.093567,690.174072 304.534668,690.174072 309.424072,690.174072 
	C309.225616,688.323669 309.061890,686.797058 308.899109,685.279175 
	C306.054443,685.279175 303.728424,685.279175 300.446625,685.288513 
M409.933594,712.252136 
	C414.568665,712.722046 413.601959,709.974731 412.949768,706.956543 
	C408.325531,706.956543 403.873993,706.956543 399.511108,706.956543 
	C399.511108,704.896118 399.511108,703.193604 399.511108,701.106079 
	C403.707306,701.106079 407.487823,701.106079 411.489868,701.106079 
	C411.489868,699.313538 411.489868,697.913330 411.489868,695.985962 
	C407.160980,695.985962 403.105652,695.985962 398.792175,695.985962 
	C398.903290,693.846069 398.986206,692.248718 399.087677,690.294434 
	C403.867950,690.294434 408.290588,690.294434 412.996307,690.294434 
	C412.901581,688.475098 412.827271,687.047668 412.751617,685.595154 
	C406.081665,685.595154 399.692017,685.595154 393.257568,685.595154 
	C393.257568,694.730835 393.257568,703.457153 393.257568,712.253357 
	C398.752411,712.253357 403.905792,712.253357 409.933594,712.252136 
M353.275757,707.151978 
	C349.977600,707.151978 346.679413,707.151978 343.032196,707.151978 
	C343.137238,704.934631 343.218597,703.216980 343.322998,701.012695 
	C347.625427,701.012695 351.545441,701.012695 355.375702,701.012695 
	C356.513214,697.351501 355.689545,695.821594 352.064270,696.104248 
	C349.134888,696.332764 346.173492,696.150574 343.128174,696.150574 
	C343.128174,693.916321 343.128174,692.180115 343.128174,690.149170 
	C347.892731,690.149170 352.350067,690.149170 357.241425,690.149170 
	C357.049713,688.289001 356.893127,686.769714 356.764069,685.517700 
	C349.938019,685.517700 343.678864,685.517700 337.235687,685.517700 
	C337.235687,694.476440 337.235687,703.094482 337.235687,711.900940 
	C344.138916,711.900940 350.851593,711.900940 357.531067,711.900940 
	C358.208099,708.760071 358.101257,706.505859 353.275757,707.151978 
M745.063965,712.381165 
	C747.206909,712.283020 749.399719,712.439453 751.481873,712.031311 
	C755.289551,711.285095 757.643677,708.925476 758.058472,704.919495 
	C758.488953,700.760986 756.359497,698.361633 752.627991,697.074524 
	C750.743713,696.424622 748.745117,695.978699 747.023376,695.031311 
	C745.940491,694.435486 745.274902,693.081116 744.422119,692.067078 
	C745.671448,691.435547 746.976074,690.193420 748.158508,690.300537 
	C750.562622,690.518372 752.900696,691.464844 755.675720,692.223083 
	C756.195740,690.624939 756.721863,689.008179 757.690613,686.031189 
	C752.447021,685.838013 748.044495,685.192139 743.766479,685.667358 
	C740.174438,686.066406 738.131653,688.933533 737.838806,692.702271 
	C737.547180,696.455322 739.592346,698.602783 742.861877,699.822876 
	C744.727295,700.518921 746.763794,700.855774 748.493652,701.782776 
	C749.751038,702.456665 750.632385,703.832153 751.681396,704.894836 
	C750.186829,705.690491 748.591797,707.287292 747.218628,707.115051 
	C744.361572,706.756897 741.622009,705.461853 738.637390,704.487610 
	C735.602478,707.159180 736.224976,709.310852 740.023926,710.843384 
	C741.403381,711.399963 742.855408,711.776917 745.063965,712.381165 
M509.683807,685.215637 
	C508.666412,686.092773 506.941223,686.851746 506.771118,687.870422 
	C506.347443,690.407288 506.631653,693.062378 506.631653,695.884155 
	C502.388519,695.884155 498.827820,695.884155 494.683990,695.884155 
	C494.683990,692.239929 494.683990,688.844238 494.683990,685.125793 
	C492.493469,685.260620 490.907501,685.358276 489.121033,685.468262 
	C489.121033,694.528870 489.121033,703.250977 489.121033,712.290222 
	C491.134247,712.191956 492.849854,712.108215 495.080078,711.999329 
	C495.080078,708.292725 495.080078,705.054626 495.080078,701.843262 
	C499.084717,701.843262 502.542358,701.843262 506.502563,701.843262 
	C506.502563,705.277100 506.502563,708.515381 506.502563,711.922241 
	C508.708588,711.922241 510.396820,711.922241 512.241150,711.922241 
	C512.241150,703.777954 512.301208,695.982727 512.166748,688.190857 
	C512.149536,687.192810 511.120148,686.212280 509.683807,685.215637 
M418.759338,704.045471 
	C417.693115,706.587830 416.626862,709.130188 415.454742,711.925049 
	C417.794556,711.925049 419.575073,711.925049 421.355591,711.925049 
	C421.128876,711.472168 420.902161,711.019348 420.675446,710.566467 
	C422.699310,709.320801 424.686035,707.110107 426.754852,707.030457 
	C431.051941,706.864868 436.961426,704.188782 437.990295,711.822876 
	C440.131714,711.822876 442.018799,711.822876 444.409882,711.822876 
	C440.990814,703.961121 437.784790,696.522095 434.514954,689.111084 
	C433.518768,686.853394 432.639221,684.911194 429.223389,685.050354 
	C425.832581,685.188538 425.185364,687.458862 424.299744,689.509766 
	C422.346222,694.033875 420.745636,698.710388 418.759338,704.045471 
M632.046448,685.383545 
	C630.466858,685.301331 628.887268,685.219177 626.820312,685.111633 
	C626.820312,690.419800 626.843872,695.220764 626.812988,700.021484 
	C626.787659,703.960999 625.377136,706.963806 620.990234,707.318848 
	C617.304016,707.617126 614.975952,704.778076 614.860535,699.904541 
	C614.747131,695.115784 614.835754,690.322266 614.835754,685.096802 
	C612.485962,685.256531 610.926392,685.362549 609.135620,685.484314 
	C609.135620,691.366150 608.682739,696.891235 609.311096,702.290344 
	C609.669250,705.367615 611.305054,708.611572 613.224792,711.123962 
	C616.877747,715.904541 621.669739,712.912964 625.804932,711.758545 
	C630.070862,710.567566 632.180298,706.907532 632.408875,702.629211 
	C632.701416,697.152100 632.496216,691.648315 632.046448,685.383545 
M533.775330,711.772766 
	C537.211304,711.833008 540.774841,712.490723 544.048584,711.791382 
	C547.579102,711.037231 550.212402,708.442078 550.255981,704.338806 
	C550.299316,700.263611 548.047913,697.905579 544.238281,696.839966 
	C542.641785,696.393494 540.934753,696.107178 539.519836,695.315674 
	C538.238892,694.599060 537.286987,693.294373 536.189941,692.249023 
	C537.707214,691.550598 539.172058,690.654053 540.762817,690.233765 
	C541.611938,690.009521 542.702087,690.535339 543.642456,690.846436 
	C548.433472,692.431641 548.428772,692.445801 549.380432,686.288452 
	C545.129578,685.900940 540.906006,685.041138 536.742676,685.271179 
	C532.665161,685.496399 530.278809,688.392700 529.792297,692.541199 
	C529.322876,696.543091 530.757996,699.183472 535.024475,699.990356 
	C536.965576,700.357422 538.933533,700.975220 540.671021,701.892761 
	C541.909546,702.546753 542.783875,703.890625 543.820679,704.926636 
	C542.463745,705.685364 541.008911,707.209351 539.769409,707.050659 
	C536.769775,706.666687 533.870483,705.498230 530.552124,704.536194 
	C529.817139,705.478333 528.850464,706.717468 527.422729,708.547546 
	C529.461731,709.697327 531.217468,710.687500 533.775330,711.772766 
M277.024628,702.459473 
	C277.024628,698.518555 277.024628,694.577637 277.024628,690.456238 
	C279.929596,690.296875 282.377716,690.162537 284.955994,690.021118 
	C284.955994,688.388550 284.955994,686.990051 284.955994,685.381592 
	C277.545563,685.381592 270.443848,685.381592 263.151581,685.381592 
	C263.151581,687.062683 263.151581,688.749695 263.151581,690.761719 
	C265.964417,690.761719 268.369720,690.761719 271.049927,690.761719 
	C271.049927,698.039978 271.049927,704.987671 271.049927,712.063477 
	C273.106689,712.063477 274.855072,712.063477 276.993103,712.063477 
	C276.993103,709.018372 276.993103,706.224609 277.024628,702.459473 
M652.255493,685.264587 
	C647.000549,685.264587 641.745667,685.264587 636.141968,685.264587 
	C636.233459,687.230591 636.298706,688.632080 636.370667,690.178345 
	C639.279297,690.424500 641.826782,690.640137 644.713257,690.884399 
	C644.713257,698.272156 644.713257,705.156433 644.713257,712.074829 
	C646.714600,712.074829 648.314392,712.074829 650.538879,712.074829 
	C650.538879,704.852173 650.538879,697.821777 650.538879,690.724854 
	C653.433533,690.499634 655.714600,690.322144 658.553345,690.101257 
	C658.435608,688.422791 658.331177,686.933350 658.214233,685.266663 
	C656.148438,685.266663 654.664795,685.266663 652.255493,685.264587 
M476.932617,711.270203 
	C476.932617,704.375305 476.932617,697.480347 476.932617,690.517761 
	C480.102570,690.330200 482.380096,690.195435 484.896820,690.046509 
	C484.896820,688.416016 484.896820,687.037292 484.896820,685.534973 
	C477.117706,685.534973 469.621216,685.534973 462.110962,685.534973 
	C461.466461,693.336548 467.665863,689.123230 470.937195,691.111206 
	C470.937195,697.836060 470.937195,704.890076 470.937195,712.287659 
	C473.119293,712.190735 474.743286,712.118591 476.932617,711.270203 
M315.085358,689.743347 
	C315.085358,697.146729 315.085358,704.550110 315.085358,712.100098 
	C321.359589,712.100098 326.990326,712.100098 332.781952,712.100098 
	C332.781952,710.387634 332.781952,708.835815 332.781952,706.827209 
	C328.764954,706.827209 325.024963,706.827209 320.693237,706.827209 
	C320.693237,699.327026 320.693237,692.278870 320.693237,685.377014 
	C317.155457,684.689331 314.567719,684.566956 315.085358,689.743347 
M447.685059,710.445679 
	C448.308167,711.027161 448.918732,712.096802 449.556396,712.113281 
	C454.831909,712.249268 460.112427,712.190186 465.844055,712.190186 
	C465.743256,710.154907 465.668549,708.646362 465.579590,706.850098 
	C461.449158,706.850098 457.852386,706.850098 453.710266,706.850098 
	C453.710266,700.934509 453.597870,695.322021 453.747894,689.716614 
	C453.856079,685.675415 452.289673,684.267334 447.682068,685.792603 
	C447.682068,693.567871 447.682068,701.510254 447.685059,710.445679 
M591.417114,685.081116 
	C589.230286,684.880493 587.559387,685.042847 587.608887,688.039185 
	C587.739502,695.937805 587.653076,703.840027 587.653076,711.900269 
	C594.005066,711.900269 599.842224,711.900269 605.940430,711.900269 
	C605.685364,710.058105 605.487061,708.625305 605.255249,706.950684 
	C601.238770,706.950684 597.475220,706.950684 593.252991,706.950684 
	C593.252991,704.563538 593.339783,702.447754 593.235779,700.341370 
	C592.986267,695.288696 592.647217,690.240417 591.417114,685.081116 
M668.734375,700.480713 
	C668.734375,695.521729 668.734375,690.562744 668.734375,685.431763 
	C666.383728,685.431763 664.786438,685.431763 663.104614,685.431763 
	C663.104614,694.432068 663.104614,703.188660 663.104614,712.206360 
	C665.142517,712.116882 666.882874,712.040466 668.739868,711.958862 
	C668.739868,708.117004 668.739868,704.790466 668.734375,700.480713 
M553.733521,735.065369 
	C553.482544,733.643860 553.231567,732.222290 552.980591,730.800781 
	C552.639404,730.828552 552.298279,730.856384 551.957092,730.884155 
	C551.658630,733.238220 551.360229,735.592224 551.005920,738.386841 
	C549.416443,738.057556 548.017090,737.301758 546.971008,737.639709 
	C544.020386,738.592651 539.849182,739.214905 538.617676,741.371521 
	C535.388916,747.025879 540.952759,753.600830 547.553833,752.714050 
	C549.445984,752.459839 551.358154,752.353943 553.736267,752.136536 
	C553.736267,746.828064 553.736267,741.385803 553.733521,735.065369 
M406.891174,750.343262 
	C406.031525,750.059265 404.971558,749.302612 404.344788,749.568176 
	C400.315002,751.275940 396.254028,751.052429 394.374054,747.133545 
	C393.087311,744.451294 393.076111,740.363892 394.146667,737.528442 
	C395.781647,733.198181 400.209320,734.674927 403.711487,735.035339 
	C405.105133,735.178772 406.437073,735.921692 407.797119,736.391724 
	C407.967194,735.824463 408.137268,735.257263 408.307373,734.690063 
	C405.132935,732.343323 401.621155,730.997986 397.392090,732.476624 
	C391.563293,734.514648 388.846375,740.515381 391.087860,746.155457 
	C393.804688,752.991638 398.525391,754.450623 406.891174,750.343262 
M472.066132,749.135925 
	C476.943939,753.668274 481.400543,753.854126 484.289001,749.325500 
	C480.654053,749.591125 476.418274,752.696594 473.949463,746.746155 
	C478.121307,746.746155 481.878876,746.746155 487.642242,746.746155 
	C485.368988,743.194519 484.345093,739.805847 482.164062,738.700500 
	C480.066711,737.637573 476.511749,738.314514 474.060852,739.337646 
	C469.816193,741.109436 471.725342,745.270325 472.066132,749.135925 
M632.343262,739.190796 
	C627.059814,736.357727 623.145203,737.172546 621.070068,741.537292 
	C619.201904,745.466797 620.919861,750.561523 624.647461,752.146301 
	C628.163757,753.641174 631.519836,752.571045 632.950623,749.229736 
	C629.220703,750.322205 625.245239,752.676086 622.614136,746.546082 
	C626.899353,746.358093 630.698425,746.191406 635.538452,745.979126 
	C634.454041,743.390625 633.676636,741.534973 632.343262,739.190796 
M571.892151,737.653015 
	C575.674866,731.956055 581.135376,736.085999 586.820740,736.218811 
	C581.040283,731.164185 575.127441,731.148743 571.187866,735.248230 
	C567.406006,739.183655 567.421509,745.587585 571.222351,749.470032 
	C575.209045,753.542358 581.666443,753.455139 587.418762,748.059326 
	C577.593689,750.609985 568.235657,753.056641 571.892151,737.653015 
M523.807190,751.756470 
	C529.675293,753.253540 531.133240,752.894287 532.442749,749.628784 
	C525.950012,751.651184 524.406067,751.161865 522.841858,746.037964 
	C526.843201,746.037964 530.672546,746.037964 534.680481,746.037964 
	C534.905884,741.146301 532.856079,738.375916 528.823425,737.561768 
	C524.878784,736.765381 521.674805,738.156189 520.201477,742.307739 
	C518.856323,746.098145 519.770935,749.133240 523.807190,751.756470 
M438.677002,739.609009 
	C442.458282,739.280334 443.603516,741.466919 443.687927,744.769043 
	C443.755127,747.395935 443.936432,750.019897 444.067017,752.645203 
	C444.752869,752.599365 445.438690,752.553589 446.124512,752.507751 
	C445.769928,748.610901 446.153046,744.457336 444.905273,740.871277 
	C442.400909,733.674011 436.120026,740.760803 432.303497,737.770508 
	C432.303497,742.947083 432.303497,747.724365 432.303497,752.501648 
	C432.736725,752.531067 433.169983,752.560486 433.603210,752.589905 
	C433.801910,750.449158 433.626221,748.181519 434.297791,746.201111 
	C435.068512,743.928284 436.590149,741.909973 438.677002,739.609009 
M413.264160,739.828735 
	C410.095215,744.575867 410.744110,749.871277 414.835632,751.737061 
	C418.729614,753.512695 422.480743,753.121826 425.213898,749.678650 
	C427.854370,746.352173 427.397919,742.626770 424.583557,739.677612 
	C421.319366,736.257202 417.505219,736.526367 413.264160,739.828735 
M590.218567,749.202393 
	C593.046570,755.953674 598.469177,751.096924 602.944702,752.561157 
	C602.047302,746.973083 605.056396,740.801758 599.084412,737.598572 
	C597.159607,736.566162 593.827332,738.157715 591.138916,738.548950 
	C591.220703,739.123718 591.302551,739.698425 591.384399,740.273193 
	C594.626038,740.134949 599.007690,736.567078 600.439453,742.750793 
	C596.791870,744.628540 590.857483,741.918213 590.218567,749.202393 
M455.918701,741.665649 
	C457.821014,741.047241 460.167633,739.461304 461.504059,740.075012 
	C462.916595,740.723694 463.727386,743.389648 464.144836,745.316589 
	C464.649353,747.645508 464.464630,750.123718 464.578156,752.537354 
	C465.300018,752.470642 466.021851,752.403992 466.743683,752.337280 
	C466.232635,748.280151 466.676270,743.761841 464.990631,740.272034 
	C462.351227,734.807678 456.860352,738.345154 453.180481,738.063416 
	C453.180481,742.862732 453.180481,747.673706 453.180481,752.484619 
	C453.561646,752.476746 453.942841,752.468811 454.324005,752.460876 
	C454.699402,749.109924 455.074768,745.759033 455.918701,741.665649 
M490.184265,741.812256 
	C487.745605,745.810913 490.007812,748.992920 492.658264,751.298096 
	C495.585693,753.844116 500.376984,752.623718 503.153412,749.380981 
	C499.699646,748.337585 495.131348,753.507690 492.800507,747.810852 
	C492.054443,745.987549 492.193451,742.101135 493.176300,741.598022 
	C495.864044,740.222107 499.216553,740.144775 502.507111,739.514648 
	C501.293762,738.400940 499.579926,736.827820 497.830994,735.222534 
	C495.207550,737.357849 492.879547,739.252747 490.184265,741.812256 
M511.847839,749.137939 
	C511.847839,746.189392 511.847839,743.240845 511.847839,740.347168 
	C513.632812,739.912476 515.054382,739.566284 516.475891,739.220093 
	C516.443481,738.978882 516.411133,738.737732 516.378723,738.496521 
	C514.979553,738.307373 513.580322,738.118286 512.224121,737.934998 
	C511.788605,736.232300 511.412048,734.760254 511.008057,733.180908 
	C509.184845,735.180359 507.635712,736.879333 506.961456,737.618774 
	C507.924072,740.226440 508.851440,742.382019 509.488983,744.620239 
	C509.795502,745.696350 509.492157,746.932617 509.572968,748.088806 
	C509.895721,752.707336 512.585815,753.775085 517.059753,750.783325 
	C515.296997,750.465759 513.769287,750.190491 511.847839,749.137939 
M614.388855,740.197205 
	C615.338928,739.576477 616.289001,738.955811 617.239075,738.335083 
	C617.018799,737.759766 616.798523,737.184509 616.578308,736.609192 
	C614.165710,737.249817 609.840027,737.570312 609.670044,738.586182 
	C608.911743,743.117615 609.340637,747.847717 609.340637,752.505981 
	C609.632996,752.457214 609.925354,752.408508 610.217712,752.359741 
	C611.404297,748.461243 612.590942,744.562805 614.388855,740.197205 
z"/>
<path fill="#2FDFD0" opacity="1.000000" stroke="none" 
	d="
M704.886597,436.901428 
	C709.791565,497.904633 690.828918,549.886353 648.364075,593.170959 
	C641.535461,600.131470 633.641296,606.159973 625.739380,611.934814 
	C587.269104,640.049561 543.991821,651.261536 496.698395,647.937256 
	C420.823883,642.603882 353.932922,590.775330 329.403503,518.578308 
	C300.269562,432.828827 333.949249,335.648438 411.184662,289.816437 
	C481.185242,248.277603 552.281860,249.273224 620.307800,294.404358 
	C670.533447,327.726105 698.082397,376.353516 704.886597,436.901428 
M576.733582,635.329956 
	C578.445312,634.681824 580.180969,634.090149 581.865479,633.377502 
	C652.516846,603.488525 693.937683,550.611755 702.485596,474.410217 
	C708.575806,420.118256 693.121826,370.790649 656.612061,329.670654 
	C605.502747,272.107666 541.229187,250.751266 466.369781,268.690765 
	C371.743805,291.367157 310.335083,382.560577 322.980591,479.525177 
	C331.543274,545.182800 365.684448,594.281433 424.428894,624.942871 
	C473.062531,650.327087 524.027710,652.754456 576.733582,635.329956 
z"/>
<path fill="#1D376E" opacity="1.000000" stroke="none" 
	d="
M726.548401,685.685425 
	C728.277588,685.246704 729.744873,685.169983 731.654846,685.070068 
	C731.654846,694.080078 731.654846,702.804688 731.654846,711.725647 
	C728.126160,713.236145 725.783569,711.658264 723.683594,708.555237 
	C720.851990,704.371033 717.686646,700.412720 713.663818,696.651245 
	C713.663818,701.641113 713.663818,706.630981 713.663818,711.989563 
	C711.387146,711.989563 709.692993,711.989563 707.784912,711.989563 
	C707.784912,703.167908 707.784912,694.428223 707.784912,684.066406 
	C710.612610,685.482605 713.190979,686.041870 714.623108,687.632874 
	C718.430298,691.862427 721.743164,696.536865 726.286499,700.739685 
	C726.286499,695.842285 726.286499,690.944824 726.548401,685.685425 
z"/>
<path fill="#1D376E" opacity="1.000000" stroke="none" 
	d="
M362.832489,694.124084 
	C362.827637,690.992371 362.827637,688.339844 362.827637,685.362183 
	C364.671082,685.362183 366.232239,685.362183 368.274109,685.362183 
	C368.500580,688.762817 368.728088,692.179016 368.973694,695.866821 
	C372.616364,695.866821 376.213898,695.866821 380.754974,695.866821 
	C380.754974,693.593567 380.866547,691.340881 380.731262,689.103027 
	C380.465424,684.705017 382.281799,683.912292 386.131775,685.989685 
	C386.131775,694.538635 386.131775,703.146362 386.131775,711.984497 
	C384.380066,711.984497 382.770569,711.984497 380.732971,711.984497 
	C380.732971,708.770874 380.732971,705.534424 380.732971,701.889099 
	C376.738800,701.889099 373.156555,701.889099 368.917236,701.889099 
	C368.769409,704.978149 368.607513,708.360657 368.435333,711.957825 
	C366.556213,711.957825 364.946014,711.957825 362.837341,711.957825 
	C362.837341,706.170715 362.837341,700.387024 362.832489,694.124084 
z"/>
<path fill="#1D376E" opacity="1.000000" stroke="none" 
	d="
M575.340942,686.563599 
	C583.688660,691.045044 583.855713,701.485291 580.800903,705.516296 
	C574.611877,713.682922 564.840210,715.123596 557.679016,709.187012 
	C553.999390,706.136658 552.290466,699.708130 554.056458,694.545593 
	C555.950500,689.008606 559.957764,685.575928 565.766907,685.109985 
	C568.799866,684.866699 571.935730,685.906799 575.340942,686.563599 
M559.794739,696.921509 
	C559.512817,702.598511 561.421692,705.919250 565.633362,707.078491 
	C569.737488,708.208130 574.347778,705.912109 575.814514,702.008057 
	C577.526733,697.450806 575.625488,692.497314 571.443481,690.619385 
	C566.827393,688.546570 562.792603,690.479614 559.794739,696.921509 
z"/>
<path fill="#1D376E" opacity="1.000000" stroke="none" 
	d="
M687.945129,684.908691 
	C697.028320,685.781494 702.048523,690.485168 702.452271,698.100769 
	C702.809631,704.842102 698.314209,710.625916 691.535706,712.145874 
	C684.099548,713.813293 677.435486,710.610291 674.702942,704.055603 
	C670.724731,694.512878 676.499634,685.884521 687.945129,684.908691 
M687.562073,707.314087 
	C691.495483,707.319153 694.752686,705.516907 695.486145,701.817627 
	C696.040405,699.022217 695.470764,695.468567 694.101257,692.962952 
	C692.395752,689.842590 688.867615,688.988464 685.338318,690.410461 
	C681.559509,691.932983 679.541870,694.913208 679.640503,698.942688 
	C679.751343,703.474548 682.152222,706.359558 687.562073,707.314087 
z"/>
<path fill="#1D376E" opacity="1.000000" stroke="none" 
	d="
M300.924500,685.283813 
	C303.728424,685.279175 306.054443,685.279175 308.899109,685.279175 
	C309.061890,686.797058 309.225616,688.323669 309.424072,690.174072 
	C304.534668,690.174072 300.093567,690.174072 295.174835,690.174072 
	C295.064301,692.127747 294.967499,693.838501 294.881561,695.356995 
	C299.012482,698.129395 305.696289,693.174255 308.364410,698.714905 
	C308.161835,699.438416 307.959290,700.161865 307.756714,700.885376 
	C303.850983,700.885376 299.945251,700.885376 295.456573,700.885376 
	C295.314850,703.096863 295.203766,704.830200 295.064209,707.008301 
	C299.893890,707.008301 304.487976,707.008301 309.399353,707.008301 
	C309.546478,708.814209 309.661255,710.223022 309.801636,711.945801 
	C302.936340,711.945801 296.367096,711.945801 289.465149,711.945801 
	C289.465149,703.239319 289.465149,694.546082 289.465149,685.288513 
	C293.236237,685.288513 296.841431,685.288513 300.924500,685.283813 
z"/>
<path fill="#1D376E" opacity="1.000000" stroke="none" 
	d="
M409.496399,712.252747 
	C403.905792,712.253357 398.752411,712.253357 393.257568,712.253357 
	C393.257568,703.457153 393.257568,694.730835 393.257568,685.595154 
	C399.692017,685.595154 406.081665,685.595154 412.751617,685.595154 
	C412.827271,687.047668 412.901581,688.475098 412.996307,690.294434 
	C408.290588,690.294434 403.867950,690.294434 399.087677,690.294434 
	C398.986206,692.248718 398.903290,693.846069 398.792175,695.985962 
	C403.105652,695.985962 407.160980,695.985962 411.489868,695.985962 
	C411.489868,697.913330 411.489868,699.313538 411.489868,701.106079 
	C407.487823,701.106079 403.707306,701.106079 399.511108,701.106079 
	C399.511108,703.193604 399.511108,704.896118 399.511108,706.956543 
	C403.873993,706.956543 408.325531,706.956543 412.949768,706.956543 
	C413.601959,709.974731 414.568665,712.722046 409.496399,712.252747 
z"/>
<path fill="#1D376E" opacity="1.000000" stroke="none" 
	d="
M353.730621,707.149780 
	C358.101257,706.505859 358.208099,708.760071 357.531067,711.900940 
	C350.851593,711.900940 344.138916,711.900940 337.235687,711.900940 
	C337.235687,703.094482 337.235687,694.476440 337.235687,685.517700 
	C343.678864,685.517700 349.938019,685.517700 356.764069,685.517700 
	C356.893127,686.769714 357.049713,688.289001 357.241425,690.149170 
	C352.350067,690.149170 347.892731,690.149170 343.128174,690.149170 
	C343.128174,692.180115 343.128174,693.916321 343.128174,696.150574 
	C346.173492,696.150574 349.134888,696.332764 352.064270,696.104248 
	C355.689545,695.821594 356.513214,697.351501 355.375702,701.012695 
	C351.545441,701.012695 347.625427,701.012695 343.322998,701.012695 
	C343.218597,703.216980 343.137238,704.934631 343.032196,707.151978 
	C346.679413,707.151978 349.977600,707.151978 353.730621,707.149780 
z"/>
<path fill="#1D376E" opacity="1.000000" stroke="none" 
	d="
M744.669128,712.308472 
	C742.855408,711.776917 741.403381,711.399963 740.023926,710.843384 
	C736.224976,709.310852 735.602478,707.159180 738.637390,704.487610 
	C741.622009,705.461853 744.361572,706.756897 747.218628,707.115051 
	C748.591797,707.287292 750.186829,705.690491 751.681396,704.894836 
	C750.632385,703.832153 749.751038,702.456665 748.493652,701.782776 
	C746.763794,700.855774 744.727295,700.518921 742.861877,699.822876 
	C739.592346,698.602783 737.547180,696.455322 737.838806,692.702271 
	C738.131653,688.933533 740.174438,686.066406 743.766479,685.667358 
	C748.044495,685.192139 752.447021,685.838013 757.690613,686.031189 
	C756.721863,689.008179 756.195740,690.624939 755.675720,692.223083 
	C752.900696,691.464844 750.562622,690.518372 748.158508,690.300537 
	C746.976074,690.193420 745.671448,691.435547 744.422119,692.067017 
	C745.274902,693.081116 745.940491,694.435486 747.023376,695.031311 
	C748.745117,695.978699 750.743713,696.424622 752.627991,697.074524 
	C756.359497,698.361633 758.488953,700.760986 758.058472,704.919495 
	C757.643677,708.925476 755.289551,711.285095 751.481873,712.031311 
	C749.399719,712.439453 747.206909,712.283020 744.669128,712.308472 
z"/>
<path fill="#1D376E" opacity="1.000000" stroke="none" 
	d="
M510.121704,685.219604 
	C511.120148,686.212280 512.149536,687.192810 512.166748,688.190857 
	C512.301208,695.982727 512.241150,703.777954 512.241150,711.922241 
	C510.396820,711.922241 508.708588,711.922241 506.502563,711.922241 
	C506.502563,708.515381 506.502563,705.277100 506.502563,701.843262 
	C502.542358,701.843262 499.084717,701.843262 495.080078,701.843262 
	C495.080078,705.054626 495.080078,708.292725 495.080078,711.999329 
	C492.849854,712.108215 491.134247,712.191956 489.121033,712.290222 
	C489.121033,703.250977 489.121033,694.528870 489.121033,685.468262 
	C490.907501,685.358276 492.493469,685.260620 494.683990,685.125793 
	C494.683990,688.844238 494.683990,692.239929 494.683990,695.884155 
	C498.827820,695.884155 502.388519,695.884155 506.631653,695.884155 
	C506.631653,693.062378 506.347443,690.407288 506.771118,687.870422 
	C506.941223,686.851746 508.666412,686.092773 510.121704,685.219604 
z"/>
<path fill="#1D376E" opacity="1.000000" stroke="none" 
	d="
M418.880188,703.685059 
	C420.745636,698.710388 422.346222,694.033875 424.299744,689.509766 
	C425.185364,687.458862 425.832581,685.188538 429.223389,685.050354 
	C432.639221,684.911194 433.518768,686.853394 434.514954,689.111084 
	C437.784790,696.522095 440.990814,703.961121 444.409882,711.822876 
	C442.018799,711.822876 440.131714,711.822876 437.990295,711.822876 
	C436.961426,704.188782 431.051941,706.864868 426.754852,707.030457 
	C424.686035,707.110107 422.699310,709.320801 420.675446,710.566467 
	C420.902161,711.019348 421.128876,711.472168 421.355591,711.925049 
	C419.575073,711.925049 417.794556,711.925049 415.454742,711.925049 
	C416.626862,709.130188 417.693115,706.587830 418.880188,703.685059 
M431.807831,696.708435 
	C431.180511,695.407288 430.553223,694.106201 429.668518,692.271240 
	C428.316589,695.668457 427.215057,698.436462 426.043701,701.379944 
	C428.842438,701.379944 430.929230,701.379944 433.438019,701.379944 
	C432.879547,699.794189 432.451813,698.579590 431.807831,696.708435 
z"/>
<path fill="#1D376E" opacity="1.000000" stroke="none" 
	d="
M632.276001,685.769775 
	C632.496216,691.648315 632.701416,697.152100 632.408875,702.629211 
	C632.180298,706.907532 630.070862,710.567566 625.804932,711.758545 
	C621.669739,712.912964 616.877747,715.904541 613.224792,711.123962 
	C611.305054,708.611572 609.669250,705.367615 609.311096,702.290344 
	C608.682739,696.891235 609.135620,691.366150 609.135620,685.484314 
	C610.926392,685.362549 612.485962,685.256531 614.835754,685.096802 
	C614.835754,690.322266 614.747131,695.115784 614.860535,699.904541 
	C614.975952,704.778076 617.304016,707.617126 620.990234,707.318848 
	C625.377136,706.963806 626.787659,703.960999 626.812988,700.021484 
	C626.843872,695.220764 626.820312,690.419800 626.820312,685.111633 
	C628.887268,685.219177 630.466858,685.301331 632.276001,685.769775 
z"/>
<path fill="#1D376E" opacity="1.000000" stroke="none" 
	d="
M533.374268,711.725220 
	C531.217468,710.687500 529.461731,709.697327 527.422729,708.547546 
	C528.850464,706.717468 529.817139,705.478333 530.552124,704.536194 
	C533.870483,705.498230 536.769775,706.666687 539.769409,707.050659 
	C541.008911,707.209351 542.463745,705.685364 543.820679,704.926636 
	C542.783875,703.890625 541.909546,702.546753 540.671021,701.892761 
	C538.933533,700.975220 536.965576,700.357422 535.024475,699.990356 
	C530.757996,699.183472 529.322876,696.543091 529.792297,692.541199 
	C530.278809,688.392700 532.665161,685.496399 536.742676,685.271179 
	C540.906006,685.041138 545.129578,685.900940 549.380432,686.288452 
	C548.428772,692.445801 548.433472,692.431641 543.642456,690.846436 
	C542.702087,690.535339 541.611938,690.009521 540.762817,690.233765 
	C539.172058,690.654053 537.707214,691.550598 536.189941,692.249023 
	C537.286987,693.294373 538.238892,694.599060 539.519836,695.315674 
	C540.934753,696.107178 542.641785,696.393494 544.238281,696.839966 
	C548.047913,697.905579 550.299316,700.263611 550.255981,704.338806 
	C550.212402,708.442078 547.579102,711.037231 544.048584,711.791382 
	C540.774841,712.490723 537.211304,711.833008 533.374268,711.725220 
z"/>
<path fill="#1D376E" opacity="1.000000" stroke="none" 
	d="
M277.008850,702.945190 
	C276.993103,706.224609 276.993103,709.018372 276.993103,712.063477 
	C274.855072,712.063477 273.106689,712.063477 271.049927,712.063477 
	C271.049927,704.987671 271.049927,698.039978 271.049927,690.761719 
	C268.369720,690.761719 265.964417,690.761719 263.151581,690.761719 
	C263.151581,688.749695 263.151581,687.062683 263.151581,685.381592 
	C270.443848,685.381592 277.545563,685.381592 284.955994,685.381592 
	C284.955994,686.990051 284.955994,688.388550 284.955994,690.021118 
	C282.377716,690.162537 279.929596,690.296875 277.024628,690.456238 
	C277.024628,694.577637 277.024628,698.518555 277.008850,702.945190 
z"/>
<path fill="#1D376E" opacity="1.000000" stroke="none" 
	d="
M652.718323,685.265625 
	C654.664795,685.266663 656.148438,685.266663 658.214233,685.266663 
	C658.331177,686.933350 658.435608,688.422791 658.553345,690.101257 
	C655.714600,690.322144 653.433533,690.499634 650.538879,690.724854 
	C650.538879,697.821777 650.538879,704.852173 650.538879,712.074829 
	C648.314392,712.074829 646.714600,712.074829 644.713257,712.074829 
	C644.713257,705.156433 644.713257,698.272156 644.713257,690.884399 
	C641.826782,690.640137 639.279297,690.424500 636.370667,690.178345 
	C636.298706,688.632080 636.233459,687.230591 636.141968,685.264587 
	C641.745667,685.264587 647.000549,685.264587 652.718323,685.265625 
z"/>
<path fill="#1D376E" opacity="1.000000" stroke="none" 
	d="
M476.649963,711.658325 
	C474.743286,712.118591 473.119293,712.190735 470.937195,712.287659 
	C470.937195,704.890076 470.937195,697.836060 470.937195,691.111206 
	C467.665863,689.123230 461.466461,693.336548 462.110962,685.534973 
	C469.621216,685.534973 477.117706,685.534973 484.896820,685.534973 
	C484.896820,687.037292 484.896820,688.416016 484.896820,690.046509 
	C482.380096,690.195435 480.102570,690.330200 476.932617,690.517761 
	C476.932617,697.480347 476.932617,704.375305 476.649963,711.658325 
z"/>
<path fill="#1D376E" opacity="1.000000" stroke="none" 
	d="
M315.086517,689.277222 
	C314.567719,684.566956 317.155457,684.689331 320.693237,685.377014 
	C320.693237,692.278870 320.693237,699.327026 320.693237,706.827209 
	C325.024963,706.827209 328.764954,706.827209 332.781952,706.827209 
	C332.781952,708.835815 332.781952,710.387634 332.781952,712.100098 
	C326.990326,712.100098 321.359589,712.100098 315.085358,712.100098 
	C315.085358,704.550110 315.085358,697.146729 315.086517,689.277222 
z"/>
<path fill="#1D376E" opacity="1.000000" stroke="none" 
	d="
M447.683563,709.949219 
	C447.682068,701.510254 447.682068,693.567871 447.682068,685.792603 
	C452.289673,684.267334 453.856079,685.675415 453.747894,689.716614 
	C453.597870,695.322021 453.710266,700.934509 453.710266,706.850098 
	C457.852386,706.850098 461.449158,706.850098 465.579590,706.850098 
	C465.668549,708.646362 465.743256,710.154907 465.844055,712.190186 
	C460.112427,712.190186 454.831909,712.249268 449.556396,712.113281 
	C448.918732,712.096802 448.308167,711.027161 447.683563,709.949219 
z"/>
<path fill="#1D376E" opacity="1.000000" stroke="none" 
	d="
M591.880737,685.135742 
	C592.647217,690.240417 592.986267,695.288696 593.235779,700.341370 
	C593.339783,702.447754 593.252991,704.563538 593.252991,706.950684 
	C597.475220,706.950684 601.238770,706.950684 605.255249,706.950684 
	C605.487061,708.625305 605.685364,710.058105 605.940430,711.900269 
	C599.842224,711.900269 594.005066,711.900269 587.653076,711.900269 
	C587.653076,703.840027 587.739502,695.937805 587.608887,688.039185 
	C587.559387,685.042847 589.230286,684.880493 591.880737,685.135742 
z"/>
<path fill="#1D376E" opacity="1.000000" stroke="none" 
	d="
M668.737122,700.972290 
	C668.739868,704.790466 668.739868,708.117004 668.739868,711.958862 
	C666.882874,712.040466 665.142517,712.116882 663.104614,712.206360 
	C663.104614,703.188660 663.104614,694.432068 663.104614,685.431763 
	C664.786438,685.431763 666.383728,685.431763 668.734375,685.431763 
	C668.734375,690.562744 668.734375,695.521729 668.737122,700.972290 
z"/>
<path fill="#2C95D4" opacity="1.000000" stroke="none" 
	d="
M553.734863,735.504517 
	C553.736267,741.385803 553.736267,746.828064 553.736267,752.136536 
	C551.358154,752.353943 549.445984,752.459839 547.553833,752.714050 
	C540.952759,753.600830 535.388916,747.025879 538.617676,741.371521 
	C539.849182,739.214905 544.020386,738.592651 546.971008,737.639709 
	C548.017090,737.301758 549.416443,738.057556 551.005920,738.386841 
	C551.360229,735.592224 551.658630,733.238220 551.957092,730.884155 
	C552.298279,730.856384 552.639404,730.828552 552.980591,730.800781 
	C553.231567,732.222290 553.482544,733.643860 553.734863,735.504517 
M540.817627,743.866516 
	C540.360474,747.711792 541.791931,750.791565 545.751404,750.890076 
	C547.552490,750.934875 550.283081,748.803284 551.053040,747.001282 
	C552.260498,744.175476 551.437683,741.025879 548.052124,739.607300 
	C544.489258,738.114563 542.475769,740.105530 540.817627,743.866516 
z"/>
<path fill="#2C95D4" opacity="1.000000" stroke="none" 
	d="
M406.775055,750.655518 
	C398.525391,754.450623 393.804688,752.991638 391.087860,746.155457 
	C388.846375,740.515381 391.563293,734.514648 397.392090,732.476624 
	C401.621155,730.997986 405.132935,732.343323 408.307373,734.690063 
	C408.137268,735.257263 407.967194,735.824463 407.797119,736.391724 
	C406.437073,735.921692 405.105133,735.178772 403.711487,735.035339 
	C400.209320,734.674927 395.781647,733.198181 394.146667,737.528442 
	C393.076111,740.363892 393.087311,744.451294 394.374054,747.133545 
	C396.254028,751.052429 400.315002,751.275940 404.344788,749.568176 
	C404.971558,749.302612 406.031525,750.059265 406.775055,750.655518 
z"/>
<path fill="#2C95D4" opacity="1.000000" stroke="none" 
	d="
M471.798645,748.845703 
	C471.725342,745.270325 469.816193,741.109436 474.060852,739.337646 
	C476.511749,738.314514 480.066711,737.637573 482.164062,738.700500 
	C484.345093,739.805847 485.368988,743.194519 487.642242,746.746155 
	C481.878876,746.746155 478.121307,746.746155 473.949463,746.746155 
	C476.418274,752.696594 480.654053,749.591125 484.289001,749.325500 
	C481.400543,753.854126 476.943939,753.668274 471.798645,748.845703 
M474.683716,741.187500 
	C474.908783,742.149841 475.065887,743.921997 475.369568,743.947571 
	C477.998260,744.168213 480.653259,744.074585 483.955261,744.074585 
	C481.732056,738.558838 478.803772,738.637207 474.683716,741.187500 
z"/>
<path fill="#2C95D4" opacity="1.000000" stroke="none" 
	d="
M632.621216,739.435059 
	C633.676636,741.534973 634.454041,743.390625 635.538452,745.979126 
	C630.698425,746.191406 626.899353,746.358093 622.614136,746.546082 
	C625.245239,752.676086 629.220703,750.322205 632.950623,749.229736 
	C631.519836,752.571045 628.163757,753.641174 624.647461,752.146301 
	C620.919861,750.561523 619.201904,745.466797 621.070068,741.537292 
	C623.145203,737.172546 627.059814,736.357727 632.621216,739.435059 
M624.938416,740.082275 
	C624.082214,741.108032 623.225952,742.133728 621.941467,743.672485 
	C626.031555,743.672485 629.096680,743.672485 632.775818,743.672485 
	C631.147278,739.815125 628.909241,738.926331 624.938416,740.082275 
z"/>
<path fill="#2C95D4" opacity="1.000000" stroke="none" 
	d="
M571.731445,738.046082 
	C568.235657,753.056641 577.593689,750.609985 587.418762,748.059326 
	C581.666443,753.455139 575.209045,753.542358 571.222351,749.470032 
	C567.421509,745.587585 567.406006,739.183655 571.187866,735.248230 
	C575.127441,731.148743 581.040283,731.164185 586.820740,736.218811 
	C581.135376,736.085999 575.674866,731.956055 571.731445,738.046082 
z"/>
<path fill="#2C95D4" opacity="1.000000" stroke="none" 
	d="
M523.468689,751.575195 
	C519.770935,749.133240 518.856323,746.098145 520.201477,742.307739 
	C521.674805,738.156189 524.878784,736.765381 528.823425,737.561768 
	C532.856079,738.375916 534.905884,741.146301 534.680481,746.037964 
	C530.672546,746.037964 526.843201,746.037964 522.841858,746.037964 
	C524.406067,751.161865 525.950012,751.651184 532.442749,749.628784 
	C531.133240,752.894287 529.675293,753.253540 523.468689,751.575195 
M522.602539,742.834717 
	C525.672302,743.467285 528.742065,744.099854 532.305115,744.834045 
	C530.664673,738.516785 527.293274,737.884277 522.602539,742.834717 
z"/>
<path fill="#2C95D4" opacity="1.000000" stroke="none" 
	d="
M438.231262,739.695068 
	C436.590149,741.909973 435.068512,743.928284 434.297791,746.201111 
	C433.626221,748.181519 433.801910,750.449158 433.603210,752.589905 
	C433.169983,752.560486 432.736725,752.531067 432.303497,752.501648 
	C432.303497,747.724365 432.303497,742.947083 432.303497,737.770508 
	C436.120026,740.760803 442.400909,733.674011 444.905273,740.871277 
	C446.153046,744.457336 445.769928,748.610901 446.124512,752.507751 
	C445.438690,752.553589 444.752869,752.599365 444.067017,752.645203 
	C443.936432,750.019897 443.755127,747.395935 443.687927,744.769043 
	C443.603516,741.466919 442.458282,739.280334 438.231262,739.695068 
z"/>
<path fill="#2C95D4" opacity="1.000000" stroke="none" 
	d="
M413.535767,739.563110 
	C417.505219,736.526367 421.319366,736.257202 424.583557,739.677612 
	C427.397919,742.626770 427.854370,746.352173 425.213898,749.678650 
	C422.480743,753.121826 418.729614,753.512695 414.835632,751.737061 
	C410.744110,749.871277 410.095215,744.575867 413.535767,739.563110 
M424.265381,745.425781 
	C424.097015,741.533813 422.338837,738.987549 418.181274,739.413208 
	C414.526459,739.787537 412.970581,742.593262 413.799530,745.806824 
	C414.265717,747.614136 416.236359,749.784119 417.990326,750.342529 
	C421.057281,751.319031 423.309692,749.461182 424.265381,745.425781 
z"/>
<path fill="#2C95D4" opacity="1.000000" stroke="none" 
	d="
M590.180298,748.816101 
	C590.857483,741.918213 596.791870,744.628540 600.439453,742.750793 
	C599.007690,736.567078 594.626038,740.134949 591.384399,740.273193 
	C591.302551,739.698425 591.220703,739.123718 591.138916,738.548950 
	C593.827332,738.157715 597.159607,736.566162 599.084412,737.598572 
	C605.056396,740.801758 602.047302,746.973083 602.944702,752.561157 
	C598.469177,751.096924 593.046570,755.953674 590.180298,748.816101 
M600.355408,748.053833 
	C599.462952,743.599792 596.420227,745.871460 594.248779,746.352966 
	C593.555237,746.506714 593.236816,748.352905 592.746765,749.424866 
	C594.665344,749.664917 596.579956,749.999695 598.505188,750.079163 
	C598.992188,750.099243 599.512878,749.305359 600.355408,748.053833 
z"/>
<path fill="#2C95D4" opacity="1.000000" stroke="none" 
	d="
M455.684448,742.036865 
	C455.074768,745.759033 454.699402,749.109924 454.324005,752.460876 
	C453.942841,752.468811 453.561646,752.476746 453.180481,752.484619 
	C453.180481,747.673706 453.180481,742.862732 453.180481,738.063416 
	C456.860352,738.345154 462.351227,734.807678 464.990631,740.272034 
	C466.676270,743.761841 466.232635,748.280151 466.743683,752.337280 
	C466.021851,752.403992 465.300018,752.470642 464.578156,752.537354 
	C464.464630,750.123718 464.649353,747.645508 464.144836,745.316589 
	C463.727386,743.389648 462.916595,740.723694 461.504059,740.075012 
	C460.167633,739.461304 457.821014,741.047241 455.684448,742.036865 
z"/>
<path fill="#2C95D4" opacity="1.000000" stroke="none" 
	d="
M490.367889,741.479919 
	C492.879547,739.252747 495.207550,737.357849 497.830994,735.222534 
	C499.579926,736.827820 501.293762,738.400940 502.507111,739.514648 
	C499.216553,740.144775 495.864044,740.222107 493.176300,741.598022 
	C492.193451,742.101135 492.054443,745.987549 492.800507,747.810852 
	C495.131348,753.507690 499.699646,748.337585 503.153412,749.380981 
	C500.376984,752.623718 495.585693,753.844116 492.658264,751.298096 
	C490.007812,748.992920 487.745605,745.810913 490.367889,741.479919 
z"/>
<path fill="#2C95D4" opacity="1.000000" stroke="none" 
	d="
M512.044678,749.526611 
	C513.769287,750.190491 515.296997,750.465759 517.059753,750.783325 
	C512.585815,753.775085 509.895721,752.707336 509.572968,748.088806 
	C509.492157,746.932617 509.795502,745.696350 509.488983,744.620239 
	C508.851440,742.382019 507.924072,740.226440 506.961456,737.618774 
	C507.635712,736.879333 509.184845,735.180359 511.008057,733.180908 
	C511.412048,734.760254 511.788605,736.232300 512.224121,737.934998 
	C513.580322,738.118286 514.979553,738.307373 516.378723,738.496521 
	C516.411133,738.737732 516.443481,738.978882 516.475891,739.220093 
	C515.054382,739.566284 513.632812,739.912476 511.847839,740.347168 
	C511.847839,743.240845 511.847839,746.189392 512.044678,749.526611 
z"/>
<path fill="#2C95D4" opacity="1.000000" stroke="none" 
	d="
M614.083191,740.430786 
	C612.590942,744.562805 611.404297,748.461243 610.217712,752.359741 
	C609.925354,752.408508 609.632996,752.457214 609.340637,752.505981 
	C609.340637,747.847717 608.911743,743.117615 609.670044,738.586182 
	C609.840027,737.570312 614.165710,737.249817 616.578308,736.609192 
	C616.798523,737.184509 617.018799,737.759766 617.239075,738.335083 
	C616.289001,738.955811 615.338928,739.576477 614.083191,740.430786 
z"/>
<path fill="#FDFEFE" opacity="1.000000" stroke="none" 
	d="
M576.377197,635.492554 
	C524.027710,652.754456 473.062531,650.327087 424.428894,624.942871 
	C365.684448,594.281433 331.543274,545.182800 322.980591,479.525177 
	C310.335083,382.560577 371.743805,291.367157 466.369781,268.690765 
	C541.229187,250.751266 605.502747,272.107666 656.612061,329.670654 
	C693.121826,370.790649 708.575806,420.118256 702.485596,474.410217 
	C693.937683,550.611755 652.516846,603.488525 581.865479,633.377502 
	C580.180969,634.090149 578.445312,634.681824 576.377197,635.492554 
M686.304565,515.594727 
	C699.351990,477.537537 699.879639,439.203979 688.299927,400.777496 
	C658.097473,300.553253 550.065186,245.772720 451.270233,280.477325 
	C429.043121,288.285217 408.963257,299.774384 391.031708,316.133972 
	C388.005371,318.959534 384.820251,321.634491 381.976410,324.633118 
	C335.393982,373.751221 318.618164,431.870636 333.445953,497.610321 
	C351.223358,576.427246 417.360321,632.715210 497.422119,638.705017 
	C557.088257,643.168884 607.754333,622.863159 648.634460,579.221924 
	C665.635376,561.072815 678.288025,539.972168 686.304565,515.594727 
z"/>
<path fill="#FDFEFE" opacity="1.000000" stroke="none" 
	d="
M559.886780,696.516846 
	C562.792603,690.479614 566.827393,688.546570 571.443481,690.619385 
	C575.625488,692.497314 577.526733,697.450806 575.814514,702.008057 
	C574.347778,705.912109 569.737488,708.208130 565.633362,707.078491 
	C561.421692,705.919250 559.512817,702.598511 559.886780,696.516846 
z"/>
<path fill="#FDFEFE" opacity="1.000000" stroke="none" 
	d="
M687.152466,707.257080 
	C682.152222,706.359558 679.751343,703.474548 679.640503,698.942688 
	C679.541870,694.913208 681.559509,691.932983 685.338318,690.410461 
	C688.867615,688.988464 692.395752,689.842590 694.101257,692.962952 
	C695.470764,695.468567 696.040405,699.022217 695.486145,701.817627 
	C694.752686,705.516907 691.495483,707.319153 687.152466,707.257080 
z"/>
<path fill="#FDFEFE" opacity="1.000000" stroke="none" 
	d="
M431.915955,697.036743 
	C432.451813,698.579590 432.879547,699.794189 433.438019,701.379944 
	C430.929230,701.379944 428.842438,701.379944 426.043701,701.379944 
	C427.215057,698.436462 428.316589,695.668457 429.668518,692.271240 
	C430.553223,694.106201 431.180511,695.407288 431.915955,697.036743 
z"/>
<path fill="#FDFEFE" opacity="1.000000" stroke="none" 
	d="
M540.923584,743.472107 
	C542.475769,740.105530 544.489258,738.114563 548.052124,739.607300 
	C551.437683,741.025879 552.260498,744.175476 551.053040,747.001282 
	C550.283081,748.803284 547.552490,750.934875 545.751404,750.890076 
	C541.791931,750.791565 540.360474,747.711792 540.923584,743.472107 
z"/>
<path fill="#FDFEFE" opacity="1.000000" stroke="none" 
	d="
M474.993042,740.868958 
	C478.803772,738.637207 481.732056,738.558838 483.955261,744.074585 
	C480.653259,744.074585 477.998260,744.168213 475.369568,743.947571 
	C475.065887,743.921997 474.908783,742.149841 474.993042,740.868958 
z"/>
<path fill="#FDFEFE" opacity="1.000000" stroke="none" 
	d="
M625.356995,739.913086 
	C628.909241,738.926331 631.147278,739.815125 632.775818,743.672485 
	C629.096680,743.672485 626.031555,743.672485 621.941467,743.672485 
	C623.225952,742.133728 624.082214,741.108032 625.356995,739.913086 
z"/>
<path fill="#FDFEFE" opacity="1.000000" stroke="none" 
	d="
M522.721741,742.379517 
	C527.293274,737.884277 530.664673,738.516785 532.305115,744.834045 
	C528.742065,744.099854 525.672302,743.467285 522.721741,742.379517 
z"/>
<path fill="#FDFEFE" opacity="1.000000" stroke="none" 
	d="
M424.224670,745.845947 
	C423.309692,749.461182 421.057281,751.319031 417.990326,750.342529 
	C416.236359,749.784119 414.265717,747.614136 413.799530,745.806824 
	C412.970581,742.593262 414.526459,739.787537 418.181274,739.413208 
	C422.338837,738.987549 424.097015,741.533813 424.224670,745.845947 
z"/>
<path fill="#FDFEFE" opacity="1.000000" stroke="none" 
	d="
M600.186768,748.469666 
	C599.512878,749.305359 598.992188,750.099243 598.505188,750.079163 
	C596.579956,749.999695 594.665344,749.664917 592.746765,749.424866 
	C593.236816,748.352905 593.555237,746.506714 594.248779,746.352966 
	C596.420227,745.871460 599.462952,743.599792 600.186768,748.469666 
z"/>
<path fill="#2C95D4" opacity="1.000000" stroke="none" 
	d="
M685.913818,516.094971 
	C678.288025,539.972168 665.635376,561.072815 648.634460,579.221924 
	C607.754333,622.863159 557.088257,643.168884 497.422119,638.705017 
	C417.360321,632.715210 351.223358,576.427246 333.445953,497.610321 
	C318.618164,431.870636 335.393982,373.751221 381.976410,324.633118 
	C384.820251,321.634491 388.005371,318.959534 391.663635,316.130951 
	C393.601959,317.118225 394.908417,318.108521 396.022217,319.385315 
	C393.554565,321.798828 391.192688,323.840912 389.017212,326.065247 
	C342.150269,373.984283 324.503052,431.113312 339.489258,496.325378 
	C363.045135,598.828064 465.719147,652.554871 559.789124,627.085815 
	C582.248901,621.004883 602.926697,610.980957 621.198792,596.862122 
	C646.984253,576.937927 665.899841,551.402283 678.503540,520.992676 
	C681.037476,519.052063 681.411377,514.541199 685.913818,516.094971 
z"/>
<path fill="#2FDFD0" opacity="1.000000" stroke="none" 
	d="
M396.214844,319.098785 
	C394.908417,318.108521 393.601959,317.118225 391.951782,315.980103 
	C408.963257,299.774384 429.043121,288.285217 451.270233,280.477325 
	C550.065186,245.772720 658.097473,300.553253 688.299927,400.777496 
	C699.879639,439.203979 699.351990,477.537537 686.109192,515.844849 
	C681.411377,514.541199 681.037476,519.052063 678.533447,520.620300 
	C691.310669,486.821808 693.861023,452.349091 686.350037,417.328003 
	C677.674683,376.877808 657.467285,342.798828 625.156372,316.996338 
	C567.870972,271.249878 504.958313,263.815521 437.707458,292.522675 
	C422.442444,299.038818 409.112518,308.780975 396.214844,319.098785 
z"/>
<path fill="#FDFEFE" opacity="1.000000" stroke="none" 
	d="
M396.022217,319.385315 
	C409.112518,308.780975 422.442444,299.038818 437.707458,292.522675 
	C504.958313,263.815521 567.870972,271.249878 625.156372,316.996338 
	C657.467285,342.798828 677.674683,376.877808 686.350037,417.328003 
	C693.861023,452.349091 691.310669,486.821808 678.184814,520.710815 
	C665.899841,551.402283 646.984253,576.937927 621.198792,596.862122 
	C602.926697,610.980957 582.248901,621.004883 559.789124,627.085815 
	C465.719147,652.554871 363.045135,598.828064 339.489258,496.325378 
	C324.503052,431.113312 342.150269,373.984283 389.017212,326.065247 
	C391.192688,323.840912 393.554565,321.798828 396.022217,319.385315 
M451.242432,385.892273 
	C450.584534,385.874115 449.898376,385.971558 449.273376,385.818756 
	C445.613495,384.924042 442.519531,386.244110 441.912537,389.722443 
	C441.475922,392.224396 442.309906,395.950562 444.039093,397.526062 
	C445.553406,398.905792 449.510162,398.943268 451.659790,397.968231 
	C454.749664,396.566620 455.447266,393.273010 454.176575,389.816833 
	C453.895813,389.053223 454.423828,387.992249 455.199677,386.958160 
	C457.088226,385.090698 459.200653,383.396820 460.813965,381.315948 
	C463.364380,378.026520 466.324890,376.710236 470.602509,376.946167 
	C477.731873,377.339417 484.900970,377.107544 492.049164,376.949951 
	C493.006042,376.928833 493.938660,375.807587 494.882507,375.195862 
	C493.926605,374.590424 492.991577,373.505005 492.011200,373.462372 
	C487.695374,373.274841 483.262360,373.996124 479.062195,373.276642 
	C467.260132,371.255035 458.548859,375.442505 452.216492,385.291077 
	C452.126923,385.430420 452.060486,385.584656 451.242432,385.892273 
M451.747498,374.755035 
	C455.574402,368.923218 460.827881,367.019226 467.813263,367.627838 
	C475.236145,368.274597 482.762543,367.854614 490.238251,367.673798 
	C491.761963,367.636993 493.261292,366.592285 494.771881,366.012207 
	C493.317841,365.370972 491.872803,364.200806 490.408295,364.176025 
	C482.100464,364.035126 473.768951,363.843292 465.483978,364.327484 
	C460.339569,364.628143 456.521515,363.222809 453.369202,359.231995 
	C451.840363,357.296448 450.015259,354.461914 448.062286,354.228729 
	C443.912750,353.733185 441.597015,351.300293 438.631195,349.034851 
	C436.976562,347.770966 433.040619,348.102783 430.966766,349.238495 
	C429.432770,350.078552 428.033478,353.946014 428.738953,355.447876 
	C429.821259,357.752014 432.526337,359.928497 435.002289,360.718201 
	C436.627655,361.236603 438.997986,358.963379 441.155121,358.409302 
	C443.002441,357.934875 445.491180,357.350372 446.867676,358.183502 
	C449.898651,360.018127 452.406403,362.717133 455.001190,364.954315 
	C452.010132,368.756042 449.968689,371.350800 447.043030,374.284424 
	C441.581055,374.384583 436.118195,374.453003 430.657440,374.598999 
	C428.116364,374.666931 426.092987,374.583069 424.468353,371.804962 
	C422.619568,368.643555 418.020966,368.448975 415.260956,370.917389 
	C412.400330,373.475800 411.943970,376.593292 414.082642,379.838837 
	C416.147003,382.971588 420.766052,384.098297 423.131897,381.279816 
	C426.159332,377.673096 429.682007,378.125671 433.423401,378.133514 
	C437.241882,378.141510 441.106293,378.453979 444.861359,377.957794 
	C447.047333,377.668915 449.058075,376.053925 451.747498,374.755035 
M568.848633,423.127808 
	C575.440369,422.938232 582.707092,425.165802 587.270203,417.742004 
	C587.658264,417.110687 589.414490,417.014252 590.472168,417.152130 
	C595.827087,417.850098 601.161194,418.707764 606.469177,419.504425 
	C605.523499,418.355957 604.309326,416.881378 603.124146,415.442078 
	C604.167236,413.778259 605.142517,412.222473 605.925293,410.973877 
	C600.382751,411.962860 595.111023,412.903503 589.839294,413.844177 
	C590.012390,413.301208 590.185486,412.758270 590.358582,412.215302 
	C589.036865,409.945068 588.155457,407.201111 586.314209,405.489899 
	C579.749268,399.388611 572.959290,393.515045 566.029175,387.829926 
	C563.935608,386.112427 561.153870,384.322144 558.614807,384.210175 
	C544.051208,383.567902 529.465820,383.420807 514.011963,383.014893 
	C497.636871,383.651245 481.839996,386.356598 468.437042,396.718933 
	C453.211700,408.490234 449.221771,428.718506 459.415253,443.363800 
	C468.875122,456.955170 483.507477,461.918274 498.663147,466.468414 
	C498.663147,459.834930 498.520111,453.852783 498.725494,447.882599 
	C498.823242,445.040741 497.691223,443.835693 495.149780,442.824524 
	C491.154266,441.234833 487.061249,439.546021 483.569000,437.100281 
	C473.039337,429.726013 473.757751,419.197662 485.000885,412.935486 
	C486.878021,411.890015 488.888184,410.840790 490.962250,410.436157 
	C497.642944,409.132843 504.350464,407.850739 511.106964,407.081573 
	C519.731689,406.099701 527.442444,407.550903 533.213074,415.294342 
	C537.037354,420.425964 542.762207,422.771027 549.432739,422.635590 
	C555.588989,422.510529 561.754272,422.828400 568.848633,423.127808 
M501.712128,552.673523 
	C501.830658,548.414001 502.214630,544.136841 501.932953,539.903931 
	C501.825043,538.282715 500.293121,536.693726 499.238220,535.212524 
	C497.603058,532.916565 494.341003,530.597961 494.519684,528.526184 
	C494.695953,526.482361 497.996887,523.794678 500.440765,523.028748 
	C508.196838,520.597961 516.191284,518.926453 524.096252,516.972534 
	C533.385010,514.676636 542.579712,511.881134 549.605103,505.069092 
	C562.423706,492.639740 563.424683,476.365356 549.918213,463.668976 
	C543.200500,457.354126 534.689453,454.520782 525.425293,452.054932 
	C525.145325,457.776001 525.088928,463.057770 524.558289,468.291443 
	C524.216675,471.660492 524.486816,473.815308 528.377502,474.964233 
	C532.949463,476.314331 537.286133,479.018066 537.714294,484.280823 
	C538.162231,489.786591 533.660767,492.290863 529.411560,494.359619 
	C526.437073,495.807800 523.308411,497.031769 520.131470,497.950836 
	C514.862183,499.475189 509.352356,500.266113 504.211121,502.110901 
	C497.551910,504.500427 490.477722,506.649872 484.781891,510.622711 
	C471.783051,519.689331 472.400940,536.545959 485.690582,545.226990 
	C490.363770,548.279602 495.857849,550.075684 501.712128,552.673523 
M529.913330,330.842010 
	C527.947571,324.855835 524.516113,320.165405 518.347107,317.983917 
	C510.732208,315.291138 503.043243,317.520355 497.672546,323.908813 
	C492.211456,330.404785 491.083771,339.774811 496.181488,347.128418 
	C499.499695,351.915009 500.161377,356.720123 500.096100,362.073669 
	C500.026245,367.804047 500.080383,373.535950 500.080383,379.533173 
	C507.306458,378.909149 513.238770,378.162048 519.188538,377.977844 
	C522.369507,377.879333 523.100708,376.610840 523.135620,373.778412 
	C523.201294,368.455505 523.313782,363.108826 523.898438,357.826447 
	C524.209717,355.014038 525.101257,352.055298 526.515503,349.617798 
	C529.800537,343.955902 532.159790,338.285431 529.913330,330.842010 
M502.779572,440.919434 
	C503.315796,459.604736 503.852020,478.290070 504.402832,497.483856 
	C507.910553,496.652710 510.755859,495.683289 513.673218,495.355927 
	C518.149353,494.853638 519.711975,492.659485 519.813904,488.186798 
	C520.348083,464.753113 521.148254,441.325531 521.843445,417.895447 
	C521.895813,416.131256 521.850281,414.364166 521.850281,412.359497 
	C514.991150,412.359497 508.773010,412.359497 502.712402,412.359497 
	C502.712402,421.793335 502.712402,430.889648 502.779572,440.919434 
M529.967468,576.485474 
	C541.584473,566.525574 537.816223,551.360962 521.722412,545.393066 
	C521.722412,550.337219 520.785095,555.327087 521.938354,559.774902 
	C523.743164,566.735291 523.607056,569.033325 517.323669,572.816101 
	C513.063232,575.380981 508.102631,577.030762 504.391754,580.189941 
	C500.782135,583.263000 497.735413,587.424988 495.618805,591.692627 
	C493.834198,595.290833 495.095276,599.327271 499.430664,603.520203 
	C497.695435,596.507324 499.767212,592.006653 504.376556,588.954773 
	C507.383301,586.963989 510.828583,585.624512 514.110596,584.063049 
	C519.185486,581.648865 524.288757,579.294189 529.967468,576.485474 
M518.039185,528.636108 
	C518.039185,526.835571 518.039185,525.035034 518.039185,522.513977 
	C513.635376,523.512512 509.852600,524.370300 506.659973,525.094238 
	C506.659973,541.623474 506.659973,557.523438 506.659973,573.644043 
	C516.607483,570.823853 516.971191,570.406128 517.219116,561.567078 
	C517.518005,550.912842 517.779175,540.257446 518.039185,528.636108 
M475.581055,358.061737 
	C480.241791,358.041107 484.910095,358.165649 489.559387,357.924530 
	C491.288910,357.834839 492.974060,356.889374 494.679443,356.334137 
	C492.872345,355.663849 491.083771,354.485992 489.254639,354.419189 
	C483.939087,354.225098 478.584900,354.791504 473.291504,354.416168 
	C470.744659,354.235565 467.774384,353.194855 465.909668,351.523895 
	C460.588989,346.756012 455.745972,341.456177 450.697693,336.382874 
	C446.703766,332.369171 446.974915,329.723724 450.252075,325.019897 
	C451.555939,323.148407 452.017578,319.126648 450.863892,317.511841 
	C449.497192,315.598877 445.730011,314.071228 443.458893,314.547852 
	C441.585266,314.941132 438.605927,319.468689 439.166565,320.490143 
	C442.186218,325.991699 443.413269,332.179138 446.371155,337.633698 
	C446.747192,338.327087 447.563232,338.777771 448.161194,339.355591 
	C452.826477,343.863708 457.700195,348.180511 462.083893,352.947815 
	C465.580200,356.750000 469.286163,359.160553 475.581055,358.061737 
M469.828827,327.705963 
	C468.022583,324.084595 464.600494,322.993866 461.470642,324.435303 
	C459.413574,325.382690 457.227570,328.529144 457.204010,330.713501 
	C457.180603,332.883881 459.657928,336.831512 461.269592,336.953766 
	C466.992523,337.387726 469.312744,341.563324 472.515106,344.986877 
	C473.934662,346.504456 475.584595,348.625702 477.337830,348.850281 
	C481.694397,349.408447 486.170410,349.033875 490.598480,349.033875 
	C490.753632,348.390594 490.908752,347.747345 491.063873,347.104065 
	C489.114105,346.546234 487.106049,345.370117 485.225555,345.547302 
	C479.751648,346.063141 475.781006,344.349609 472.531891,339.788605 
	C470.680695,337.190033 468.196991,335.352478 470.466766,331.758331 
	C470.932404,331.021027 470.233185,329.548096 469.828827,327.705963 
M516.220215,596.302673 
	C516.220215,593.384094 516.220215,590.465515 516.220215,585.858704 
	C512.601685,588.497742 508.832672,589.817078 508.122345,592.091675 
	C506.989868,595.718079 507.485413,600.048218 508.134583,603.940247 
	C508.396576,605.511292 510.877167,606.712219 512.348083,608.081604 
	C513.667358,606.614319 515.574341,605.344055 516.150024,603.627380 
	C516.798462,601.693665 516.247681,599.357849 516.220215,596.302673 
M618.531677,399.047058 
	C614.403625,394.509979 609.268066,392.071503 603.142517,392.034515 
	C601.887329,392.026978 600.626343,392.975922 599.368042,393.483978 
	C599.427673,394.016174 599.487366,394.548340 599.546997,395.080536 
	C611.277283,395.126343 618.206299,400.602448 620.200562,412.691925 
	C621.613220,411.643677 623.075256,410.196228 622.802856,409.246155 
	C621.855774,405.943085 620.307129,402.812531 618.531677,399.047058 
M600.202209,401.438385 
	C606.226929,403.073639 610.353149,407.343842 613.936707,412.436584 
	C615.476868,407.000214 613.560059,403.502289 609.570435,401.407806 
	C606.729553,399.916443 603.607910,397.302795 600.202209,401.438385 
z"/>
<path fill="#2C95D4" opacity="1.000000" stroke="none" 
	d="
M567.915588,422.951172 
	C561.754272,422.828400 555.588989,422.510529 549.432739,422.635590 
	C542.762207,422.771027 537.037354,420.425964 533.213074,415.294342 
	C527.442444,407.550903 519.731689,406.099701 511.106964,407.081573 
	C504.350464,407.850739 497.642944,409.132843 490.962250,410.436157 
	C488.888184,410.840790 486.878021,411.890015 485.000885,412.935486 
	C473.757751,419.197662 473.039337,429.726013 483.569000,437.100281 
	C487.061249,439.546021 491.154266,441.234833 495.149780,442.824524 
	C497.691223,443.835693 498.823242,445.040741 498.725494,447.882599 
	C498.520111,453.852783 498.663147,459.834930 498.663147,466.468414 
	C483.507477,461.918274 468.875122,456.955170 459.415253,443.363800 
	C449.221771,428.718506 453.211700,408.490234 468.437042,396.718933 
	C481.839996,386.356598 497.636871,383.651245 514.480835,383.424255 
	C516.265869,385.381622 517.508911,387.000275 518.917603,388.458832 
	C520.489868,390.086761 523.126465,391.296936 523.684814,393.170319 
	C524.956543,397.436859 528.279785,398.807281 531.588013,398.794525 
	C539.943970,398.762299 545.165283,402.129669 548.177856,410.052216 
	C549.821045,414.373596 552.789429,418.175262 558.761108,416.963104 
	C564.376404,415.823334 565.979431,417.041138 567.915588,422.951172 
z"/>
<path fill="#2C95D4" opacity="1.000000" stroke="none" 
	d="
M501.344604,552.559509 
	C495.857849,550.075684 490.363770,548.279602 485.690582,545.226990 
	C472.400940,536.545959 471.783051,519.689331 484.781891,510.622711 
	C490.477722,506.649872 497.551910,504.500427 504.211121,502.110901 
	C509.352356,500.266113 514.862183,499.475189 520.131470,497.950836 
	C523.308411,497.031769 526.437073,495.807800 529.411560,494.359619 
	C533.660767,492.290863 538.162231,489.786591 537.714294,484.280823 
	C537.286133,479.018066 532.949463,476.314331 528.377502,474.964233 
	C524.486816,473.815308 524.216675,471.660492 524.558289,468.291443 
	C525.088928,463.057770 525.145325,457.776001 525.425293,452.054932 
	C534.689453,454.520782 543.200500,457.354126 549.918213,463.668976 
	C563.424683,476.365356 562.423706,492.639740 549.605103,505.069092 
	C542.579712,511.881134 533.385010,514.676636 524.096252,516.972534 
	C516.191284,518.926453 508.196838,520.597961 500.440765,523.028748 
	C497.996887,523.794678 494.695953,526.482361 494.519684,528.526184 
	C494.341003,530.597961 497.603058,532.916565 499.238220,535.212524 
	C500.293121,536.693726 501.825043,538.282715 501.932953,539.903931 
	C502.214630,544.136841 501.830658,548.414001 501.344604,552.559509 
z"/>
<path fill="#2FDFD0" opacity="1.000000" stroke="none" 
	d="
M529.990906,331.239868 
	C532.159790,338.285431 529.800537,343.955902 526.515503,349.617798 
	C525.101257,352.055298 524.209717,355.014038 523.898438,357.826447 
	C523.313782,363.108826 523.201294,368.455505 523.135620,373.778412 
	C523.100708,376.610840 522.369507,377.879333 519.188538,377.977844 
	C513.238770,378.162048 507.306458,378.909149 500.080383,379.533173 
	C500.080383,373.535950 500.026245,367.804047 500.096100,362.073669 
	C500.161377,356.720123 499.499695,351.915009 496.181488,347.128418 
	C491.083771,339.774811 492.211456,330.404785 497.672546,323.908813 
	C503.043243,317.520355 510.732208,315.291138 518.347107,317.983917 
	C524.516113,320.165405 527.947571,324.855835 529.990906,331.239868 
z"/>
<path fill="#2FDFD0" opacity="1.000000" stroke="none" 
	d="
M568.382080,423.039490 
	C565.979431,417.041138 564.376404,415.823334 558.761108,416.963104 
	C552.789429,418.175262 549.821045,414.373596 548.177856,410.052216 
	C545.165283,402.129669 539.943970,398.762299 531.588013,398.794525 
	C528.279785,398.807281 524.956543,397.436859 523.684814,393.170319 
	C523.126465,391.296936 520.489868,390.086761 518.917603,388.458832 
	C517.508911,387.000275 516.265869,385.381622 514.918823,383.469635 
	C529.465820,383.420807 544.051208,383.567902 558.614807,384.210175 
	C561.153870,384.322144 563.935608,386.112427 566.029175,387.829926 
	C572.959290,393.515045 579.749268,399.388611 586.314209,405.489899 
	C588.155457,407.201111 589.036865,409.945068 590.358582,412.215302 
	C590.185486,412.758270 590.012390,413.301208 589.839294,413.844177 
	C595.111023,412.903503 600.382751,411.962860 605.925293,410.973877 
	C605.142517,412.222473 604.167236,413.778259 603.124146,415.442078 
	C604.309326,416.881378 605.523499,418.355957 606.469177,419.504425 
	C601.161194,418.707764 595.827087,417.850098 590.472168,417.152130 
	C589.414490,417.014252 587.658264,417.110687 587.270203,417.742004 
	C582.707092,425.165802 575.440369,422.938232 568.382080,423.039490 
M559.561462,402.324951 
	C561.409180,402.060303 563.412903,402.115234 565.009583,401.336090 
	C565.487915,401.102600 565.303589,398.191284 564.540527,397.158844 
	C563.949585,396.359253 561.061035,396.009857 560.795654,396.442566 
	C559.855591,397.975739 559.602844,399.930359 559.561462,402.324951 
z"/>
<path fill="#2C95D4" opacity="1.000000" stroke="none" 
	d="
M502.745972,440.452698 
	C502.712402,430.889648 502.712402,421.793335 502.712402,412.359497 
	C508.773010,412.359497 514.991150,412.359497 521.850281,412.359497 
	C521.850281,414.364166 521.895813,416.131256 521.843445,417.895447 
	C521.148254,441.325531 520.348083,464.753113 519.813904,488.186798 
	C519.711975,492.659485 518.149353,494.853638 513.673218,495.355927 
	C510.755859,495.683289 507.910553,496.652710 504.402832,497.483856 
	C503.852020,478.290070 503.315796,459.604736 502.745972,440.452698 
z"/>
<path fill="#2C95D4" opacity="1.000000" stroke="none" 
	d="
M529.673706,576.699890 
	C524.288757,579.294189 519.185486,581.648865 514.110596,584.063049 
	C510.828583,585.624512 507.383301,586.963989 504.376556,588.954773 
	C499.767212,592.006653 497.695435,596.507324 499.430664,603.520203 
	C495.095276,599.327271 493.834198,595.290833 495.618805,591.692627 
	C497.735413,587.424988 500.782135,583.263000 504.391754,580.189941 
	C508.102631,577.030762 513.063232,575.380981 517.323669,572.816101 
	C523.607056,569.033325 523.743164,566.735291 521.938354,559.774902 
	C520.785095,555.327087 521.722412,550.337219 521.722412,545.393066 
	C537.816223,551.360962 541.584473,566.525574 529.673706,576.699890 
z"/>
<path fill="#2C95D4" opacity="1.000000" stroke="none" 
	d="
M518.047974,529.119385 
	C517.779175,540.257446 517.518005,550.912842 517.219116,561.567078 
	C516.971191,570.406128 516.607483,570.823853 506.659973,573.644043 
	C506.659973,557.523438 506.659973,541.623474 506.659973,525.094238 
	C509.852600,524.370300 513.635376,523.512512 518.039185,522.513977 
	C518.039185,525.035034 518.039185,526.835571 518.047974,529.119385 
z"/>
<path fill="#2FDFD0" opacity="1.000000" stroke="none" 
	d="
M447.927246,373.945557 
	C449.968689,371.350800 452.010132,368.756042 455.001190,364.954315 
	C452.406403,362.717133 449.898651,360.018127 446.867676,358.183502 
	C445.491180,357.350372 443.002441,357.934875 441.155121,358.409302 
	C438.997986,358.963379 436.627655,361.236603 435.002289,360.718201 
	C432.526337,359.928497 429.821259,357.752014 428.738953,355.447876 
	C428.033478,353.946014 429.432770,350.078552 430.966766,349.238495 
	C433.040619,348.102783 436.976562,347.770966 438.631195,349.034851 
	C441.597015,351.300293 443.912750,353.733185 448.062286,354.228729 
	C450.015259,354.461914 451.840363,357.296448 453.369202,359.231995 
	C456.521515,363.222809 460.339569,364.628143 465.483978,364.327484 
	C473.768951,363.843292 482.100464,364.035126 490.408295,364.176025 
	C491.872803,364.200806 493.317841,365.370972 494.771881,366.012207 
	C493.261292,366.592285 491.761963,367.636993 490.238251,367.673798 
	C482.762543,367.854614 475.236145,368.274597 467.813263,367.627838 
	C460.827881,367.019226 455.574402,368.923218 451.105042,374.861877 
	C449.617493,374.627625 448.772339,374.286591 447.927246,373.945557 
M438.752045,354.537231 
	C438.139709,351.871094 436.624054,350.088165 433.941315,351.672791 
	C432.971436,352.245728 432.228180,355.319916 432.831848,356.044586 
	C434.686005,358.270447 436.875427,357.615997 438.752045,354.537231 
z"/>
<path fill="#2FDFD0" opacity="1.000000" stroke="none" 
	d="
M475.096680,358.067108 
	C469.286163,359.160553 465.580200,356.750000 462.083893,352.947815 
	C457.700195,348.180511 452.826477,343.863708 448.161194,339.355591 
	C447.563232,338.777771 446.747192,338.327087 446.371155,337.633698 
	C443.413269,332.179138 442.186218,325.991699 439.166565,320.490143 
	C438.605927,319.468689 441.585266,314.941132 443.458893,314.547852 
	C445.730011,314.071228 449.497192,315.598877 450.863892,317.511841 
	C452.017578,319.126648 451.555939,323.148407 450.252075,325.019897 
	C446.974915,329.723724 446.703766,332.369171 450.697693,336.382874 
	C455.745972,341.456177 460.588989,346.756012 465.909668,351.523895 
	C467.774384,353.194855 470.744659,354.235565 473.291504,354.416168 
	C478.584900,354.791504 483.939087,354.225098 489.254639,354.419189 
	C491.083771,354.485992 492.872345,355.663849 494.679443,356.334167 
	C492.974060,356.889374 491.288910,357.834839 489.559387,357.924530 
	C484.910095,358.165649 480.241791,358.041107 475.096680,358.067108 
M448.224426,322.715759 
	C447.883240,321.055634 447.783966,319.269623 447.031372,317.823639 
	C446.842529,317.460876 444.129395,317.761810 443.352722,318.536285 
	C442.561401,319.325287 442.726685,321.073730 442.473114,322.402069 
	C444.181091,322.658539 445.889069,322.915009 448.224426,322.715759 
z"/>
<path fill="#2FDFD0" opacity="1.000000" stroke="none" 
	d="
M469.949860,328.060120 
	C470.233185,329.548096 470.932404,331.021027 470.466766,331.758331 
	C468.196991,335.352478 470.680695,337.190033 472.531891,339.788605 
	C475.781006,344.349609 479.751648,346.063141 485.225555,345.547302 
	C487.106049,345.370117 489.114105,346.546234 491.063873,347.104065 
	C490.908752,347.747345 490.753632,348.390594 490.598480,349.033875 
	C486.170410,349.033875 481.694397,349.408447 477.337830,348.850281 
	C475.584595,348.625702 473.934662,346.504456 472.515106,344.986877 
	C469.312744,341.563324 466.992523,337.387726 461.269592,336.953766 
	C459.657928,336.831512 457.180603,332.883881 457.204010,330.713501 
	C457.227570,328.529144 459.413574,325.382690 461.470642,324.435303 
	C464.600494,322.993866 468.022583,324.084595 469.949860,328.060120 
M466.840546,328.441803 
	C464.992432,328.380310 462.992371,327.889984 461.369812,328.464966 
	C460.705872,328.700226 460.305664,331.478088 460.814362,332.654297 
	C461.220703,333.593964 464.087433,334.581390 464.309052,334.304504 
	C465.534790,332.773071 466.284729,330.860748 466.840546,328.441803 
z"/>
<path fill="#2C95D4" opacity="1.000000" stroke="none" 
	d="
M447.485107,374.114990 
	C448.772339,374.286591 449.617493,374.627625 450.805115,375.002136 
	C449.058075,376.053925 447.047333,377.668915 444.861359,377.957794 
	C441.106293,378.453979 437.241882,378.141510 433.423401,378.133514 
	C429.682007,378.125671 426.159332,377.673096 423.131897,381.279816 
	C420.766052,384.098297 416.147003,382.971588 414.082642,379.838837 
	C411.943970,376.593292 412.400330,373.475800 415.260956,370.917389 
	C418.020966,368.448975 422.619568,368.643555 424.468353,371.804962 
	C426.092987,374.583069 428.116364,374.666931 430.657440,374.598999 
	C436.118195,374.453003 441.581055,374.384583 447.485107,374.114990 
M419.672180,372.975403 
	C416.856201,373.352386 415.728363,374.993408 417.126221,377.436798 
	C417.583771,378.236572 419.580170,378.155975 420.872833,378.477997 
	C420.726807,376.688263 420.580780,374.898499 419.672180,372.975403 
z"/>
<path fill="#2FDFD0" opacity="1.000000" stroke="none" 
	d="
M451.983215,385.731934 
	C452.060486,385.584656 452.126923,385.430420 452.216492,385.291077 
	C458.548859,375.442505 467.260132,371.255035 479.062195,373.276642 
	C483.262360,373.996124 487.695374,373.274841 492.011200,373.462372 
	C492.991577,373.505005 493.926605,374.590424 494.882507,375.195831 
	C493.938660,375.807587 493.006042,376.928833 492.049164,376.949951 
	C484.900970,377.107544 477.731873,377.339417 470.602509,376.946167 
	C466.324890,376.710236 463.364380,378.026520 460.813965,381.315948 
	C459.200653,383.396820 457.088226,385.090698 454.504974,386.965454 
	C453.201263,386.559143 452.592255,386.145538 451.983215,385.731934 
z"/>
<path fill="#2C95D4" opacity="1.000000" stroke="none" 
	d="
M516.219360,596.749756 
	C516.247681,599.357849 516.798462,601.693665 516.150024,603.627380 
	C515.574341,605.344055 513.667358,606.614319 512.348083,608.081604 
	C510.877167,606.712219 508.396576,605.511292 508.134583,603.940247 
	C507.485413,600.048218 506.989868,595.718079 508.122345,592.091675 
	C508.832672,589.817078 512.601685,588.497742 516.220215,585.858704 
	C516.220215,590.465515 516.220215,593.384094 516.219360,596.749756 
z"/>
<path fill="#2FDFD0" opacity="1.000000" stroke="none" 
	d="
M618.759460,399.331726 
	C620.307129,402.812531 621.855774,405.943085 622.802856,409.246155 
	C623.075256,410.196228 621.613220,411.643677 620.200562,412.691925 
	C618.206299,400.602448 611.277283,395.126343 599.546997,395.080536 
	C599.487366,394.548340 599.427673,394.016174 599.368042,393.483978 
	C600.626343,392.975922 601.887329,392.026978 603.142517,392.034515 
	C609.268066,392.071503 614.403625,394.509979 618.759460,399.331726 
z"/>
<path fill="#2C95D4" opacity="1.000000" stroke="none" 
	d="
M451.612823,385.812103 
	C452.592255,386.145538 453.201263,386.559143 454.194855,387.020477 
	C454.423828,387.992249 453.895813,389.053223 454.176575,389.816833 
	C455.447266,393.273010 454.749664,396.566620 451.659790,397.968231 
	C449.510162,398.943268 445.553406,398.905792 444.039093,397.526062 
	C442.309906,395.950562 441.475922,392.224396 441.912537,389.722443 
	C442.519531,386.244110 445.613495,384.924042 449.273376,385.818756 
	C449.898376,385.971558 450.584534,385.874115 451.612823,385.812103 
M450.786682,390.837219 
	C449.313080,390.380646 447.835999,389.627106 446.367920,389.644196 
	C445.913696,389.649475 444.953003,391.883423 445.195435,392.854462 
	C445.427429,393.783661 447.458679,395.211395 447.766968,395.007935 
	C449.027924,394.175629 449.932281,392.803040 450.786682,390.837219 
z"/>
<path fill="#2FDFD0" opacity="1.000000" stroke="none" 
	d="
M600.218018,401.058044 
	C603.607910,397.302795 606.729553,399.916443 609.570435,401.407806 
	C613.560059,403.502289 615.476868,407.000214 613.936707,412.436584 
	C610.353149,407.343842 606.226929,403.073639 600.218018,401.058044 
z"/>
<path fill="#FDFEFE" opacity="1.000000" stroke="none" 
	d="
M559.325562,402.025116 
	C559.602844,399.930359 559.855591,397.975739 560.795654,396.442566 
	C561.061035,396.009857 563.949585,396.359253 564.540527,397.158844 
	C565.303589,398.191284 565.487915,401.102600 565.009583,401.336090 
	C563.412903,402.115234 561.409180,402.060303 559.325562,402.025116 
z"/>
<path fill="#FDFEFE" opacity="1.000000" stroke="none" 
	d="
M438.616821,354.892059 
	C436.875427,357.615997 434.686005,358.270447 432.831848,356.044586 
	C432.228180,355.319916 432.971436,352.245728 433.941315,351.672791 
	C436.624054,350.088165 438.139709,351.871094 438.616821,354.892059 
z"/>
<path fill="#FDFEFE" opacity="1.000000" stroke="none" 
	d="
M447.910736,322.943604 
	C445.889069,322.915009 444.181091,322.658539 442.473145,322.402069 
	C442.726685,321.073730 442.561401,319.325287 443.352722,318.536285 
	C444.129395,317.761810 446.842529,317.460876 447.031372,317.823639 
	C447.783966,319.269623 447.883240,321.055634 447.910736,322.943604 
z"/>
<path fill="#FDFEFE" opacity="1.000000" stroke="none" 
	d="
M467.019104,328.760376 
	C466.284729,330.860748 465.534790,332.773071 464.309052,334.304504 
	C464.087433,334.581390 461.220703,333.593964 460.814362,332.654297 
	C460.305664,331.478088 460.705872,328.700226 461.369812,328.464966 
	C462.992371,327.889984 464.992432,328.380310 467.019104,328.760376 
z"/>
<path fill="#FDFEFE" opacity="1.000000" stroke="none" 
	d="
M420.053467,373.042084 
	C420.580780,374.898499 420.726807,376.688263 420.872833,378.477966 
	C419.580170,378.155975 417.583771,378.236572 417.126221,377.436798 
	C415.728363,374.993408 416.856201,373.352386 420.053467,373.042084 
z"/>
<path fill="#FDFEFE" opacity="1.000000" stroke="none" 
	d="
M450.877319,391.233307 
	C449.932281,392.803040 449.027924,394.175629 447.766968,395.007935 
	C447.458679,395.211395 445.427429,393.783661 445.195435,392.854462 
	C444.953003,391.883423 445.913696,389.649475 446.367920,389.644196 
	C447.835999,389.627106 449.313080,390.380646 450.877319,391.233307 
z"/>
</svg>